<?xml version="1.0" encoding="UTF-8" standalone="no"?>
<!-- Created with Inkscape (http://www.inkscape.org/) -->

<svg
   xmlns:dc="http://purl.org/dc/elements/1.1/"
   xmlns:cc="http://creativecommons.org/ns#"
   xmlns:rdf="http://www.w3.org/1999/02/22-rdf-syntax-ns#"
   xmlns:svg="http://www.w3.org/2000/svg"
   xmlns="http://www.w3.org/2000/svg"
   xmlns:sodipodi="http://sodipodi.sourceforge.net/DTD/sodipodi-0.dtd"
   xmlns:inkscape="http://www.inkscape.org/namespaces/inkscape"
   width="2240"
   height="100"
   viewBox="0 0 592.66665 26.458334"
   version="1.1"
   id="svg821"
   inkscape:version="0.92.4 (5da689c313, 2019-01-14)"
   sodipodi:docname="vision.svg"
   inkscape:export-filename="/home/sakar/workspace/marscom/res/a.png"
   inkscape:export-xdpi="737.28003"
   inkscape:export-ydpi="737.28003">
  <defs
     id="defs815" />
  <sodipodi:namedview
     id="base"
     pagecolor="#ffffff"
     bordercolor="#666666"
     borderopacity="1.0"
     inkscape:pageopacity="0.0"
     inkscape:pageshadow="2"
     inkscape:zoom="5.6"
     inkscape:cx="277.33045"
     inkscape:cy="37.623527"
     inkscape:document-units="mm"
     inkscape:current-layer="layer1"
     showgrid="true"
     units="px"
     inkscape:snap-global="true"
     inkscape:snap-nodes="false"
     inkscape:snap-bbox="false">
    <inkscape:grid
       type="xygrid"
       id="grid1366"
       spacingx="42.333333"
       spacingy="13.229167"
       color="#ff3f3f"
       opacity="0.1254902"
       empspacing="1"
       empcolor="#ff3f3f"
       empopacity="0.25098039" />
    <inkscape:grid
       type="xygrid"
       id="grid4588"
       spacingx="0.13229167"
       spacingy="0.13229167"
       empspacing="20"
       color="#f4ff3f"
       opacity="0.1254902"
       empcolor="#f2ff3f"
       empopacity="0.25098039" />
  </sodipodi:namedview>
  <metadata
     id="metadata818">
    <rdf:RDF>
      <cc:Work
         rdf:about="">
        <dc:format>image/svg+xml</dc:format>
        <dc:type
           rdf:resource="http://purl.org/dc/dcmitype/StillImage" />
        <dc:title />
      </cc:Work>
    </rdf:RDF>
  </metadata>
  <g
     inkscape:label="Layer 1"
     inkscape:groupmode="layer"
     id="layer1"
     transform="translate(0,-270.54165)">
    <path
       style="fill:#8a8abd;fill-opacity:1;stroke:none;stroke-width:0.26458332px;stroke-linecap:butt;stroke-linejoin:miter;stroke-opacity:1"
       d="m 0,270.54165 v 26.45833 l 592.66667,0 -10e-6,-26.45833 z"
       id="path5122"
       inkscape:connector-curvature="0"
       sodipodi:nodetypes="ccccc"
       inkscape:export-xdpi="1152.0001"
       inkscape:export-ydpi="1152.0001" />
    <path
       style="fill:#250c00;stroke:none;stroke-width:0.26458332px;stroke-linecap:butt;stroke-linejoin:miter;stroke-opacity:1;fill-opacity:1"
       d="m 5.2916667,270.54165 -3.96875,3.96875 1.3229166,9.26042 5.2916667,5.29166 6.614583,1.32292 2.645834,3.96875 h 5.291666 l 5.291667,-5.29167 7.9375,-1.32291 5.291667,-3.96875 1.322916,0 v 13.22916 H 0 v -26.45833 z"
       id="path5073"
       inkscape:connector-curvature="0"
       sodipodi:nodetypes="ccccccccccccccc"
       inkscape:export-xdpi="1152.0001"
       inkscape:export-ydpi="1152.0001" />
    <path
       style="fill:#250c00;stroke:none;stroke-width:0.26458332px;stroke-linecap:butt;stroke-linejoin:miter;stroke-opacity:1;fill-opacity:1"
       d="m 42.333333,283.77082 6.614584,1.32291 h 7.9375 l -1.322917,3.96875 -1.322917,-1.32291 -5.291666,1.32291 -1.322917,2.64584 2.645833,1.32291 3.96875,0 1.322917,-1.32291 3.96875,2.64583 5.291667,-2.64583 5.291666,-1.32292 6.614584,-3.96875 h 5.291666 l 2.645834,2.64583 -10e-7,7.9375 H 42.333333 Z"
       id="path5075"
       inkscape:connector-curvature="0"
       sodipodi:nodetypes="ccccccccccccccccccc"
       inkscape:export-xdpi="1152.0001"
       inkscape:export-ydpi="1152.0001" />
    <path
       style="fill:#250c00;stroke:none;stroke-width:0.26458332px;stroke-linecap:butt;stroke-linejoin:miter;stroke-opacity:1;fill-opacity:1"
       d="m 84.666666,296.99998 v -7.9375 l 2.645833,2.64584 6.614583,2.64583 6.614588,1.32292 H 111.125 l 6.61458,-2.64584 5.29167,-3.96875 L 127,287.73957 v 9.26041 z"
       id="path5077"
       inkscape:connector-curvature="0"
       inkscape:export-xdpi="1152.0001"
       inkscape:export-ydpi="1152.0001" />
    <path
       style="fill:#250c00;stroke:none;stroke-width:0.26458332px;stroke-linecap:butt;stroke-linejoin:miter;stroke-opacity:1;fill-opacity:1"
       d="m 127,287.73957 3.96875,-1.32292 h 5.29166 l 6.61459,-1.32292 h 9.26041 l 3.96875,2.64584 2.64584,3.96875 2.64583,1.32291 3.96875,-6.61458 h 3.96875 v 10.58333 H 127 Z"
       id="path5079"
       inkscape:connector-curvature="0"
       inkscape:export-xdpi="1152.0001"
       inkscape:export-ydpi="1152.0001" />
    <path
       style="fill:#250c00;stroke:none;stroke-width:0.26458332px;stroke-linecap:butt;stroke-linejoin:miter;stroke-opacity:1;fill-opacity:1"
       d="m 169.33333,286.41665 h 1.32292 l 5.29166,-2.64583 5.29167,3.96875 2.64583,5.29166 2.64584,1.32292 3.96875,-3.96875 2.64583,-6.61458 2.64583,6.61458 2.64584,3.96875 5.29166,-6.61458 3.96875,3.96875 3.96875,-1.32292 v 6.61458 h -42.33333 z"
       id="path5081"
       inkscape:connector-curvature="0"
       inkscape:export-xdpi="1152.0001"
       inkscape:export-ydpi="1152.0001" />
    <path
       style="fill:#250c00;stroke:none;stroke-width:0.26458332px;stroke-linecap:butt;stroke-linejoin:miter;stroke-opacity:1;fill-opacity:1"
       d="M 211.66666,290.3854 222.25,287.73957 h 6.61458 l 3.96875,-1.32292 2.64583,6.61458 h 10.58334 l 2.64583,-1.32291 h 5.29166 c 0,0 1e-5,5.29166 1e-5,5.29166 -1e-5,0 -42.33334,0 -42.33334,0 z"
       id="path5083"
       inkscape:connector-curvature="0"
       inkscape:export-xdpi="1152.0001"
       inkscape:export-ydpi="1152.0001" />
    <path
       style="fill:#250c00;stroke:none;stroke-width:0.26458332px;stroke-linecap:butt;stroke-linejoin:miter;stroke-opacity:1;fill-opacity:1"
       d="m 254,291.70832 h 6.61458 l 6.61458,1.32291 h 15.875 l 9.26042,-2.64583 h 3.96875 v 6.61458 H 254 Z"
       id="path5085"
       inkscape:connector-curvature="0"
       inkscape:export-xdpi="1152.0001"
       inkscape:export-ydpi="1152.0001" />
    <path
       style="fill:#250c00;stroke:none;stroke-width:0.26458332px;stroke-linecap:butt;stroke-linejoin:miter;stroke-opacity:1;fill-opacity:1"
       d="m 296.33333,290.3854 h 3.96875 l 13.22917,3.96875 h 11.90625 l 2.64583,-1.32292 h 10.58333 v 3.96875 h -42.33333 z"
       id="path5087"
       inkscape:connector-curvature="0"
       inkscape:export-xdpi="1152.0001"
       inkscape:export-ydpi="1152.0001" />
    <path
       style="fill:#250c00;stroke:none;stroke-width:0.26458332px;stroke-linecap:butt;stroke-linejoin:miter;stroke-opacity:1;fill-opacity:1"
       d="M 338.66666,293.03123 H 349.25 l 9.26041,-1.32291 h 13.22917 L 381,294.35415 c 0,0 0,2.64583 0,2.64583 0,0 -42.33334,0 -42.33334,0 z"
       id="path5089"
       inkscape:connector-curvature="0"
       inkscape:export-xdpi="1152.0001"
       inkscape:export-ydpi="1152.0001" />
    <path
       style="fill:#250c00;stroke:none;stroke-width:0.26458332px;stroke-linecap:butt;stroke-linejoin:miter;stroke-opacity:1;fill-opacity:1"
       d="m 381,294.35415 h 11.90625 l 6.61458,-2.64583 h 9.26041 l 5.29167,-2.64584 2.64583,-3.96875 3.96875,-1.32291 2.64584,1.32291 v 11.90625 H 381 Z"
       id="path5091"
       inkscape:connector-curvature="0"
       inkscape:export-xdpi="1152.0001"
       inkscape:export-ydpi="1152.0001" />
    <path
       style="fill:#250c00;stroke:none;stroke-width:0.26458332px;stroke-linecap:butt;stroke-linejoin:miter;stroke-opacity:1;fill-opacity:1"
       d="m 423.33333,285.09373 h 5.29166 l 3.96875,1.32292 h 3.96875 l 2.64584,5.29167 2.64583,2.64583 2.64584,1.32292 6.61458,-1.32292 3.96875,-3.96875 3.96875,-2.64583 h 6.61458 l 0,9.26041 h -42.33333 z"
       id="path5093"
       inkscape:connector-curvature="0"
       sodipodi:nodetypes="cccccccccccccc"
       inkscape:export-xdpi="1152.0001"
       inkscape:export-ydpi="1152.0001" />
    <path
       style="fill:#250c00;stroke:none;stroke-width:0.26458332px;stroke-linecap:butt;stroke-linejoin:miter;stroke-opacity:1;fill-opacity:1"
       d="m 592.66666,270.54165 -6.61458,19.84375 -5.29167,1.32292 -9.26042,2.64583 h -6.61458 l -5.29167,-2.64583 -1.32291,-5.29167 h -7.9375 v 10.58333 h 42.33333 z"
       id="path5095"
       inkscape:connector-curvature="0"
       inkscape:export-xdpi="1152.0001"
       inkscape:export-ydpi="1152.0001" />
    <path
       style="fill:#250c00;stroke:none;stroke-width:0.26458332px;stroke-linecap:butt;stroke-linejoin:miter;stroke-opacity:1;fill-opacity:1"
       d="m 550.33333,286.41665 -5.29166,2.64583 -7.9375,-1.32291 -5.29167,5.29166 -7.9375,-1.32291 -6.61458,1.32291 -2.64584,2.64584 -6.61458,1.32291 42.33333,0 z"
       id="path5097"
       inkscape:connector-curvature="0"
       sodipodi:nodetypes="cccccccccc"
       inkscape:export-xdpi="1152.0001"
       inkscape:export-ydpi="1152.0001" />
    <path
       style="fill:#250c00;stroke:none;stroke-width:0.26458332px;stroke-linecap:butt;stroke-linejoin:miter;stroke-opacity:1;fill-opacity:1"
       d="m 481.54167,296.99998 -6.61458,-1.32291 -5.29167,-2.64584 -1.32292,-3.96875 -2.64583,-1.32291 v 9.26041 z"
       id="path5099"
       inkscape:connector-curvature="0"
       inkscape:export-xdpi="1152.0001"
       inkscape:export-ydpi="1152.0001" />
    <path
       style="fill:#000000;fill-opacity:1;stroke:none;stroke-width:0.10545674px;stroke-linecap:butt;stroke-linejoin:miter;stroke-opacity:1"
       d="m 107.42083,293.2506 -0.21514,-0.002 -0.21595,0.10168 -0.10998,0.30929 0.21434,0.10507 0.21594,-0.10169 0.10918,-0.2059 0.64624,-0.0983 0.10837,-0.10252 0.10999,-0.3093 -0.21515,-0.002 -0.21755,0.30844 z"
       id="path852"
       inkscape:connector-curvature="0"
       sodipodi:nodetypes="ccccccccccccc"
       inkscape:export-xdpi="1152.0001"
       inkscape:export-ydpi="1152.0001" />
    <path
       style="fill:#000000;fill-opacity:1;stroke:none;stroke-width:0.10545674px;stroke-linecap:butt;stroke-linejoin:miter;stroke-opacity:1"
       d="m 107.36352,293.40185 0.21483,-0.009 0.11246,0.0988 0.005,0.10332 -0.0973,0.21119 -0.21481,0.009 -0.11754,-0.20211 -0.005,-0.10333 z"
       id="path854"
       inkscape:connector-curvature="0"
       sodipodi:nodetypes="ccccccccc"
       inkscape:export-xdpi="1152.0001"
       inkscape:export-ydpi="1152.0001" />
    <path
       style="fill:#d6435e;fill-opacity:1;stroke:none;stroke-width:0.10545674px;stroke-linecap:butt;stroke-linejoin:miter;stroke-opacity:1"
       d="m 107.40636,293.83349 0.20282,0.005 -0.0774,0.28132 z"
       id="path856"
       inkscape:connector-curvature="0"
       inkscape:export-xdpi="1152.0001"
       inkscape:export-ydpi="1152.0001" />
    <path
       style="fill:#000000;fill-opacity:1;stroke:none;stroke-width:0.10545674px;stroke-linecap:butt;stroke-linejoin:miter;stroke-opacity:1"
       d="m 68.710077,280.97196 h -0.132294 l -0.264581,0.13229 -0.132292,0.26458 0.132292,0.13229 h 0.132291 l 0.264584,-0.13229 v -0.13229 l 0.661458,-0.13229 0.132292,-0.13229 0.132291,-0.26459 h -0.264583 l -0.264583,0.26459 z"
       id="path852-3"
       inkscape:connector-curvature="0"
       sodipodi:nodetypes="cccccccccccccc"
       inkscape:export-xdpi="1152.0001"
       inkscape:export-ydpi="1152.0001" />
    <path
       style="fill:#160003;fill-opacity:1;stroke:none;stroke-width:0.10545674px;stroke-linecap:butt;stroke-linejoin:miter;stroke-opacity:1"
       d="m 68.671098,280.90935 h 0.264583 l 0.07512,0.13315 -0.002,0.13352 -0.07514,0.19911 -0.26044,0.002 -0.08009,-0.1991 0.0042,-0.13856 z"
       id="path854-6"
       inkscape:connector-curvature="0"
       sodipodi:nodetypes="ccccccccc"
       inkscape:export-xdpi="1152.0001"
       inkscape:export-ydpi="1152.0001" />
    <path
       style="fill:#d6435e;fill-opacity:1;stroke:none;stroke-width:0.10545674px;stroke-linecap:butt;stroke-linejoin:miter;stroke-opacity:1"
       d="m 68.680548,281.39423 0.247113,0.0109 -0.09511,0.29608 z"
       id="path856-7"
       inkscape:connector-curvature="0"
       inkscape:export-xdpi="1152.0001"
       inkscape:export-ydpi="1152.0001"
       sodipodi:nodetypes="cccc" />
    <text
       xml:space="preserve"
       style="font-style:normal;font-weight:normal;font-size:1.41111111px;line-height:6.3499999px;font-family:sans-serif;letter-spacing:0px;word-spacing:0px;fill:#000000;fill-opacity:1;stroke:none;stroke-width:0.26458332;"
       x="64.822914"
       y="271.10861"
       id="text838"><tspan
         sodipodi:role="line"
         id="tspan836"
         x="64.822914"
         y="275.01672"
         style="stroke-width:0.26458332;font-size:1.41111111px;" /></text>
    <text
       xml:space="preserve"
       style="font-style:normal;font-weight:normal;font-size:4.23333333px;line-height:6.35px;font-family:sans-serif;letter-spacing:0px;word-spacing:0px;fill:#000000;fill-opacity:1;stroke:none;stroke-width:0.26458332;"
       x="61.940849"
       y="271.10861"
       id="text842"><tspan
         sodipodi:role="line"
         id="tspan840"
         x="61.940849"
         y="275.01672"
         style="stroke-width:0.26458332;line-height:6.35px;font-size:4.23333333px;" /></text>
    <text
       xml:space="preserve"
       style="font-style:normal;font-weight:normal;font-size:0.91250867px;line-height:2.05314445px;font-family:sans-serif;letter-spacing:0px;word-spacing:0px;fill:#189b00;fill-opacity:1;stroke:none;stroke-width:0.08554769;"
       x="61.18037"
       y="296.87408"
       id="text846"><tspan
         sodipodi:role="line"
         id="tspan844"
         x="61.18037"
         y="296.87408"
         style="fill:#189b00;fill-opacity:1;stroke-width:0.08554769;">H 3/3    M 4 /4    A 0540    F 21/60</tspan></text>
  </g>
</svg>
